<?xml version="1.0" standalone="no"?>
<!DOCTYPE svg PUBLIC "-//W3C//DTD SVG 20010904//EN"
 "http://www.w3.org/TR/2001/REC-SVG-20010904/DTD/svg10.dtd">
<svg version="1.0" xmlns="http://www.w3.org/2000/svg"
 width="2480.000000pt" height="1063.000000pt" viewBox="0 0 2480.000000 1063.000000"
 preserveAspectRatio="xMidYMid meet">
<metadata>
Created by potrace 1.16, written by Peter Selinger 2001-2019
</metadata>
<g transform="translate(0.000000,1063.000000) scale(0.100000,-0.100000)"
fill="#000000" stroke="none">
<path d="M5486 9924 c-330 -74 -520 -332 -479 -653 31 -243 150 -366 495 -511
314 -132 349 -151 395 -219 47 -70 20 -187 -56 -238 -53 -36 -106 -46 -211
-40 -141 7 -269 62 -408 175 -45 37 -56 42 -67 31 -7 -8 -63 -76 -125 -152
-95 -119 -109 -141 -98 -155 31 -37 179 -137 265 -178 129 -62 259 -94 408
-101 295 -14 512 79 641 272 105 157 121 400 39 574 -69 145 -188 232 -496
364 -199 86 -279 130 -328 181 -30 31 -35 44 -39 94 -9 123 73 192 227 192
117 0 255 -53 370 -140 44 -35 56 -39 67 -28 7 7 60 78 119 157 l106 145 -38
32 c-90 77 -253 157 -384 189 -94 24 -317 28 -403 9z"/>
<path d="M14480 9926 c-231 -50 -384 -173 -460 -371 -31 -82 -40 -271 -16
-364 51 -198 195 -319 541 -456 311 -123 385 -190 356 -321 -10 -43 -21 -61
-56 -92 -24 -21 -61 -44 -83 -50 -49 -15 -164 -15 -234 -1 -76 15 -221 88
-307 154 -40 31 -76 53 -80 48 -5 -4 -54 -66 -111 -138 -57 -71 -110 -137
-117 -146 -13 -15 -6 -24 64 -78 139 -109 306 -183 488 -217 123 -22 321 -15
420 16 282 88 434 290 435 575 0 159 -38 260 -136 365 -79 83 -180 144 -392
235 -288 123 -373 179 -387 258 -24 126 55 206 211 215 124 7 240 -34 382
-135 35 -25 67 -41 71 -37 4 5 56 76 116 157 124 171 124 153 3 233 -91 61
-200 110 -300 135 -108 27 -317 34 -408 15z"/>
<path d="M1555 9273 c-98 -357 -181 -651 -184 -655 -4 -5 -81 283 -172 640
l-166 647 -223 3 c-176 2 -221 0 -218 -10 3 -7 133 -462 288 -1011 l284 -997
190 2 191 3 180 627 c99 345 182 628 185 628 3 0 86 -282 185 -627 l181 -628
191 -3 191 -2 11 32 c12 37 547 1923 557 1962 l6 26 -215 0 c-197 0 -216 -2
-221 -17 -3 -10 -73 -286 -156 -613 -166 -657 -170 -673 -175 -668 -2 1 -82
289 -180 638 -97 349 -178 643 -181 653 -5 15 -23 17 -188 17 l-182 0 -179
-647z"/>
<path d="M3440 8905 l0 -1005 655 0 655 0 0 190 0 190 -445 0 -445 0 0 225 0
225 388 0 387 0 0 182 0 183 -385 5 -385 5 -3 218 -2 217 440 0 440 0 0 185 0
185 -650 0 -650 0 0 -1005z"/>
<path d="M6470 9720 l0 -190 250 0 250 0 0 -815 0 -815 205 0 205 0 2 813 3
812 253 3 252 2 0 190 0 190 -710 0 -710 0 0 -190z"/>
<path d="M8102 8908 l3 -1003 653 -3 652 -2 0 190 0 190 -445 0 -445 0 0 225
0 225 385 0 385 0 0 185 0 185 -385 0 -385 0 0 220 0 220 440 0 440 0 0 185 0
185 -650 0 -650 0 2 -1002z"/>
<path d="M9680 8905 l0 -1005 210 0 210 0 0 335 0 335 118 0 c64 0 123 -4 131
-9 7 -5 95 -154 195 -332 l181 -324 239 -3 c201 -2 237 0 233 12 -4 11 -121
216 -413 727 -2 4 26 24 63 45 90 53 181 145 225 230 58 110 72 178 72 339 0
161 -14 229 -72 340 -52 100 -139 183 -243 234 -156 76 -147 75 -676 79 l-473
3 0 -1006z m868 607 c77 -30 117 -64 149 -129 25 -51 28 -69 27 -148 0 -109
-23 -165 -91 -224 -72 -64 -111 -73 -335 -78 l-198 -5 0 307 0 307 198 -4
c169 -4 204 -8 250 -26z"/>
<path d="M11450 8905 l0 -1005 200 0 200 0 1 578 c2 661 2 632 4 632 3 0 209
-313 583 -885 l210 -320 178 0 179 0 3 1003 2 1002 -205 0 -205 0 -2 -580 -3
-581 -130 198 c-71 109 -211 322 -311 473 -99 151 -211 323 -250 382 l-69 108
-192 0 -193 0 0 -1005z"/>
<path d="M15383 9896 c3 -8 149 -279 324 -603 l318 -588 3 -402 3 -403 204 0
204 0 3 403 3 402 249 460 c137 253 257 474 266 490 52 93 130 243 130 249 0
3 -102 6 -227 6 l-228 0 -195 -385 c-107 -212 -197 -385 -200 -385 -3 0 -92
174 -199 385 l-194 385 -235 0 c-200 0 -233 -2 -229 -14z"/>
<path d="M17310 8906 l0 -1006 313 0 c343 0 496 9 602 36 349 87 589 346 665
715 19 92 21 127 17 299 -4 170 -8 207 -30 285 -94 330 -299 542 -622 641
l-90 28 -427 4 -428 3 0 -1005z m824 601 c166 -62 271 -180 322 -364 22 -76
30 -310 14 -399 -38 -220 -161 -375 -345 -436 -62 -20 -90 -23 -235 -23 l-165
0 -3 615 c-1 338 0 621 3 629 4 11 36 13 173 9 147 -5 175 -8 236 -31z"/>
<path d="M19160 8905 l0 -1005 200 0 200 0 1 588 c1 323 1 593 0 600 -1 6 2
12 6 12 4 0 184 -269 399 -598 l391 -597 176 -3 177 -2 0 1005 0 1005 -200 0
-200 0 -1 -537 c0 -296 -1 -555 -1 -575 0 -21 -3 -38 -7 -38 -6 1 -693 1043
-735 1117 l-20 33 -193 0 -193 0 0 -1005z"/>
<path d="M21032 8908 l3 -1003 653 -3 652 -2 0 190 0 190 -445 0 -445 0 0 225
0 225 385 0 385 0 0 188 0 187 -382 0 -383 0 -3 218 -2 217 440 0 440 0 0 185
0 185 -650 0 -650 0 2 -1002z"/>
<path d="M22546 9803 c31 -60 178 -332 326 -607 l268 -498 0 -399 0 -399 210
0 210 0 0 403 0 402 324 600 325 600 -226 3 c-125 1 -230 -1 -234 -5 -3 -5
-93 -179 -199 -388 -106 -209 -194 -382 -196 -383 -1 -2 -90 171 -197 385
l-195 388 -237 3 -237 2 58 -107z"/>
<path d="M15294 7239 c-22 -23 -35 -29 -54 -25 -14 3 -65 14 -115 25 -115 26
-220 26 -319 1 -231 -59 -356 -225 -344 -455 5 -89 31 -161 76 -209 44 -46
136 -102 219 -131 394 -140 484 -197 513 -330 29 -129 -40 -259 -169 -319 -37
-17 -65 -21 -146 -21 -89 0 -106 3 -157 28 -109 54 -197 155 -282 325 -30 60
-40 72 -61 72 l-25 0 0 -250 c0 -290 -4 -281 101 -209 l60 40 56 -21 c190 -71
432 -66 565 13 140 82 219 230 220 412 0 120 -26 190 -96 260 -66 65 -117 91
-311 160 -204 72 -260 100 -315 155 -49 48 -70 99 -70 167 0 208 212 333 410
242 93 -43 204 -177 248 -301 13 -38 21 -48 39 -48 l23 0 0 225 c0 211 -1 225
-18 225 -10 0 -31 -14 -48 -31z"/>
<path d="M5430 7206 c0 -22 5 -25 53 -30 86 -11 134 -27 159 -53 l23 -25 5
-537 5 -536 32 -66 c81 -164 258 -250 513 -251 133 0 223 18 316 63 99 49 188
153 227 264 7 19 13 210 16 505 6 460 7 477 28 522 25 55 76 93 151 110 44 11
52 16 52 35 l0 23 -285 0 -285 0 0 -25 c0 -19 5 -25 23 -25 48 0 145 -41 181
-77 61 -61 61 -62 61 -563 0 -454 0 -455 -23 -513 -33 -81 -115 -166 -193
-202 -108 -48 -285 -46 -405 5 -63 27 -147 111 -173 170 -12 28 -26 83 -31
122 -10 80 -11 925 -1 972 9 44 48 66 134 78 71 10 77 13 77 35 l0 23 -330 0
-330 0 0 -24z"/>
<path d="M7137 7224 c-4 -4 -7 -15 -7 -25 0 -13 12 -19 50 -24 82 -11 151 -52
178 -105 l23 -45 -3 -535 -3 -535 -23 -48 c-28 -55 -85 -94 -166 -112 -40 -9
-52 -16 -54 -33 l-3 -22 285 0 286 0 0 25 c0 20 -5 25 -25 25 -34 0 -114 28
-149 53 -16 11 -38 41 -50 66 -20 44 -21 62 -24 481 -2 239 -2 473 0 520 l3
85 130 -175 c72 -96 288 -388 480 -647 336 -456 350 -473 382 -473 l32 0 3
663 3 662 25 45 c31 55 75 85 146 101 47 11 54 15 54 36 l0 23 -285 0 -285 0
0 -25 c0 -18 5 -25 19 -25 47 0 148 -41 178 -72 69 -71 68 -63 70 -578 2 -373
0 -462 -10 -449 -6 8 -111 150 -232 314 -121 165 -308 419 -415 565 l-196 265
-205 3 c-113 1 -208 -1 -212 -4z"/>
<path d="M8860 7206 c0 -21 5 -24 58 -31 90 -10 132 -24 158 -52 l24 -26 0
-609 c0 -419 -3 -616 -11 -630 -15 -29 -84 -56 -162 -64 -62 -6 -67 -9 -67
-30 l0 -24 345 0 345 0 0 24 c0 21 -5 24 -67 30 -78 8 -147 35 -162 64 -8 14
-11 211 -11 632 l0 611 24 24 c26 26 70 40 159 50 52 7 57 10 57 31 l0 24
-345 0 -345 0 0 -24z"/>
<path d="M9680 7205 c0 -14 5 -25 11 -25 6 0 36 -7 66 -16 63 -18 116 -61 143
-115 11 -20 110 -280 220 -576 111 -296 220 -590 244 -653 l43 -115 41 -3 c35
-3 41 0 47 20 4 13 40 106 80 208 71 180 139 352 266 677 166 424 197 483 276
533 25 16 61 33 80 36 26 5 33 11 33 30 l0 24 -257 -2 c-246 -3 -258 -4 -258
-22 0 -15 14 -23 60 -36 83 -23 104 -36 122 -78 27 -65 31 -52 -230 -737 -63
-165 -120 -317 -128 -337 -7 -21 -16 -38 -19 -38 -3 0 -60 154 -127 343 -67
188 -152 425 -189 526 -73 204 -81 239 -65 269 12 23 74 48 144 57 41 6 47 9
47 31 l0 24 -325 0 -325 0 0 -25z"/>
<path d="M11320 7206 c0 -21 5 -24 58 -31 84 -10 128 -25 154 -52 l23 -25 3
-607 2 -608 -21 -28 c-29 -36 -68 -51 -151 -60 -63 -7 -68 -9 -68 -31 l0 -24
639 0 639 0 4 233 c2 147 -1 235 -7 239 -17 13 -35 9 -42 -9 -24 -73 -88 -202
-120 -244 -21 -27 -60 -65 -88 -84 -84 -57 -135 -67 -367 -72 l-208 -5 0 341
0 341 103 0 c195 0 259 -40 312 -197 17 -53 27 -69 44 -71 l21 -3 0 305 c0
295 -1 306 -19 306 -15 0 -24 -13 -37 -52 -58 -179 -109 -216 -306 -226 l-118
-5 0 317 0 316 148 0 c338 -1 416 -38 511 -241 22 -46 43 -96 46 -111 6 -23
13 -28 37 -28 31 0 31 0 24 46 -3 26 -6 125 -6 220 l0 174 -605 0 -605 0 0
-24z"/>
<path d="M12810 7207 c0 -22 6 -25 83 -35 86 -13 123 -31 144 -73 17 -32 19
-1180 2 -1227 -14 -40 -72 -68 -161 -77 -63 -7 -68 -9 -68 -31 l0 -24 340 0
340 0 0 25 c0 20 -5 25 -27 25 -64 0 -153 23 -178 45 l-25 24 0 296 0 295 145
0 c185 0 235 -11 290 -61 53 -49 69 -100 90 -304 9 -82 23 -174 31 -202 32
-115 107 -155 288 -156 131 -1 166 7 166 37 0 21 -6 24 -61 30 -138 14 -160
44 -200 274 -16 92 -37 189 -46 216 -38 105 -122 165 -267 190 -63 11 -67 14
-41 20 176 44 287 111 338 204 91 167 33 363 -130 446 -139 70 -272 86 -724
86 l-329 0 0 -23z m785 -61 c99 -26 148 -66 186 -151 17 -39 22 -68 22 -140 0
-166 -46 -257 -156 -306 -46 -21 -70 -24 -219 -27 l-168 -4 0 328 0 327 143
-7 c78 -3 165 -12 192 -20z"/>
<path d="M15657 7223 c-4 -3 -7 -14 -7 -24 0 -13 12 -18 58 -24 88 -10 132
-24 158 -50 l24 -24 0 -620 0 -619 -29 -25 c-29 -24 -119 -47 -184 -47 -22 0
-27 -5 -27 -25 l0 -25 345 0 345 0 0 24 c0 22 -5 24 -67 31 -89 9 -140 31
-158 66 -13 24 -15 121 -15 623 0 424 3 602 11 620 16 34 67 56 156 69 67 9
73 12 73 34 l0 23 -338 0 c-186 0 -342 -3 -345 -7z"/>
<path d="M16526 7218 c-3 -7 -7 -111 -10 -230 l-7 -218 23 0 c19 0 32 19 80
118 100 205 176 266 346 278 l92 7 0 -650 0 -649 -28 -27 c-33 -32 -66 -43
-156 -52 -61 -7 -66 -9 -66 -31 l0 -24 360 0 360 0 0 24 c0 22 -5 24 -75 31
-85 8 -154 38 -172 75 -10 19 -13 176 -13 664 l0 639 88 -6 c48 -4 108 -13
132 -22 93 -33 170 -123 241 -284 32 -72 42 -86 61 -86 l23 0 -3 175 c-1 96
-5 199 -8 228 l-6 52 -629 0 c-495 0 -630 -3 -633 -12z"/>
<path d="M17930 7208 c0 -19 10 -26 61 -41 100 -29 124 -60 349 -449 l200
-347 0 -249 c0 -231 -1 -251 -19 -274 -23 -28 -73 -45 -160 -54 -56 -6 -61 -9
-61 -30 l0 -24 345 0 345 0 0 23 c0 21 -7 24 -82 35 -87 12 -124 31 -145 73
-9 17 -13 95 -13 270 l0 246 181 304 c99 167 198 327 219 355 46 61 113 108
181 125 41 11 49 17 49 36 l0 23 -250 0 -250 0 0 -23 c0 -20 8 -25 61 -36 113
-23 132 -71 73 -184 -23 -44 -292 -507 -299 -515 -1 -2 -42 68 -91 155 -48 87
-123 221 -166 298 -44 78 -78 151 -78 166 0 18 9 35 25 48 26 19 41 24 123 36
36 6 42 10 42 31 l0 24 -320 0 -320 0 0 -22z"/>
<path d="M11040 3007 c0 -1002 1 -1057 19 -1128 27 -104 61 -178 138 -293 180
-270 579 -583 1045 -817 l139 -70 92 45 c576 282 1027 664 1182 999 68 146 65
91 65 1260 l0 1057 -1340 0 -1340 0 0 -1053z m654 60 c188 -782 228 -948 231
-945 3 3 169 692 310 1286 l27 112 119 0 c65 0 119 -2 119 -5 0 -12 331 -1362
338 -1378 4 -11 66 233 172 683 l165 700 138 0 c75 0 137 -1 137 -3 0 -12
-438 -1859 -442 -1862 -3 -3 -40 10 -84 29 -43 19 -119 46 -169 61 -49 14 -93
29 -96 33 -3 4 -20 68 -37 142 -18 74 -68 286 -112 470 -44 184 -90 377 -102
428 -12 50 -24 92 -28 92 -3 0 -66 -253 -139 -562 -74 -310 -137 -566 -140
-570 -4 -4 -47 -19 -96 -33 -50 -15 -126 -42 -169 -61 -44 -19 -81 -32 -84
-30 -3 4 -442 1850 -442 1862 0 2 62 4 138 4 l137 0 109 -453z"/>
</g>
</svg>
