<?xml version="1.0" encoding="UTF-8"?>
<svg id="a" data-name="Brand" xmlns="http://www.w3.org/2000/svg" width="146.649mm" height="67.154mm" viewBox="0 0 415.697 190.358">
  <g>
    <path d="M215.242,66.915c1.734,.427,3.465,1.631,3.465,4.944,0,3.483-2.255,5.224-6.764,5.224h-9.156v-19.248h8.358c2.273,0,3.987,.417,5.143,1.251,1.154,.834,1.731,2.067,1.731,3.699,0,2.248-1.344,3.511-2.777,4.129h0Zm-8.083-1.325h3.85c.88,0,1.521-.174,1.925-.523,.402-.348,.604-.907,.604-1.677s-.202-1.329-.604-1.677c-.404-.348-1.055-.522-1.952-.522h-3.822v4.4Zm6.983,5.719c0-.843-.215-1.448-.646-1.814-.432-.367-1.169-.55-2.214-.55h-4.124v4.729h4.124c1.045,0,1.782-.183,2.214-.55,.431-.366,.646-.972,.646-1.814Z" fill="#243b2f"/>
    <path d="M225.633,76.285c-1.475-.825-2.611-1.993-3.409-3.505-.797-1.512-1.196-3.295-1.196-5.348,0-2.035,.399-3.808,1.196-5.321,.797-1.512,1.934-2.676,3.409-3.492,1.476-.815,3.213-1.224,5.211-1.224s3.739,.408,5.224,1.224c1.485,.816,2.626,1.979,3.424,3.492,.797,1.513,1.196,3.286,1.196,5.321,0,2.053-.398,3.835-1.196,5.348s-1.938,2.681-3.424,3.505c-1.484,.825-3.226,1.238-5.224,1.238s-3.735-.412-5.211-1.238Zm1.458-4.385c.925,1.109,2.177,1.663,3.753,1.663,1.595,0,2.855-.554,3.781-1.663,.925-1.109,1.388-2.598,1.388-4.468s-.463-3.35-1.388-4.441c-.926-1.09-2.187-1.636-3.781-1.636-1.576,0-2.828,.545-3.753,1.636-.926,1.091-1.389,2.571-1.389,4.441s.463,3.359,1.389,4.468Z" fill="#243b2f"/>
    <path d="M241.969,61.41v-3.575h16.992v3.575h-6.296v15.673h-4.399v-15.673h-6.297Z" fill="#243b2f"/>
    <path d="M277.59,77.083h-4.51l-1.402-4.592h-8.083l-1.402,4.592h-4.345l6.654-19.248h6.269l6.819,19.248Zm-7.121-8.057l-2.886-8.108-2.807,8.108h5.692Z" fill="#243b2f"/>
    <path d="M296.823,57.835v19.248h-5.856l-7.039-14.172v14.172h-4.234v-19.248h5.939l6.956,14.056v-14.056h4.234Z" fill="#243b2f"/>
    <path d="M300.367,57.835h4.399v19.248h-4.399v-19.248Z" fill="#243b2f"/>
    <path d="M312.208,76.285c-1.439-.825-2.553-1.998-3.341-3.52s-1.183-3.299-1.183-5.334,.395-3.809,1.183-5.321,1.901-2.676,3.341-3.492c1.439-.815,3.121-1.224,5.046-1.224,2.64,0,4.752,.697,6.338,2.09,1.585,1.393,2.488,3.318,2.708,5.774h-4.729c-.147-1.246-.592-2.208-1.334-2.887s-1.737-1.017-2.983-1.017c-1.484,0-2.672,.55-3.561,1.649-.89,1.1-1.334,2.576-1.334,4.427,0,1.869,.444,3.359,1.334,4.468,.889,1.109,2.076,1.664,3.561,1.664,1.246,0,2.245-.344,2.997-1.031s1.201-1.645,1.348-2.873h4.757c-.22,2.457-1.132,4.381-2.736,5.774-1.604,1.394-3.726,2.09-6.365,2.09-1.925,0-3.606-.412-5.045-1.237h0Z" fill="#243b2f"/>
    <path d="M206.733,103.799c-1.365-.816-2.401-1.98-3.106-3.492-.706-1.512-1.059-3.304-1.059-5.375,0-2.035,.398-3.808,1.195-5.321,.798-1.512,1.934-2.676,3.41-3.492,1.476-.815,3.212-1.224,5.21-1.224,2.64,0,4.771,.628,6.394,1.883,1.622,1.256,2.543,2.983,2.763,5.183h-4.729c-.165-.99-.633-1.755-1.402-2.296-.771-.54-1.778-.811-3.025-.811-1.576,0-2.827,.546-3.753,1.636-.926,1.091-1.389,2.571-1.389,4.44,0,1.962,.444,3.474,1.334,4.537,.889,1.063,2.158,1.595,3.808,1.595,1.155,0,2.112-.298,2.873-.894,.761-.595,1.261-1.434,1.499-2.516h-4.372v-3.382h9.432v10.311h-3.63l.056-3.904c-.55,1.393-1.385,2.466-2.502,3.217-1.119,.751-2.475,1.127-4.069,1.127-1.925,0-3.57-.409-4.936-1.224h0Z" fill="#243b2f"/>
    <path d="M243.701,104.583h-4.51l-1.402-4.592h-8.083l-1.402,4.592h-4.345l6.654-19.248h6.269l6.819,19.248Zm-7.121-8.057l-2.886-8.108-2.807,8.108h5.692Z" fill="#243b2f"/>
    <path d="M255.894,85.335c1.997,0,3.474,.422,4.427,1.265,.952,.843,1.43,2.108,1.43,3.794,0,1.265-.344,2.25-1.031,2.956s-1.618,1.058-2.791,1.058c1.375,.037,4.317,0,4.317,4.509v5.665h-4.481v-5.279c0-1.54-.706-2.31-2.117-2.31h-5.335v7.589h-4.372v-19.248h9.954Zm-1.431,8.332c1.98,0,2.97-.807,2.97-2.419,0-.807-.233-1.417-.701-1.829-.467-.412-1.224-.619-2.269-.619h-4.151v4.867h4.151Z" fill="#243b2f"/>
    <path d="M265.654,85.335h7.424c2.053,0,3.84,.376,5.361,1.127,1.521,.752,2.699,1.852,3.533,3.3s1.251,3.189,1.251,5.224c0,2.017-.417,3.744-1.251,5.184-.834,1.439-2.012,2.534-3.533,3.286-1.521,.752-3.309,1.127-5.361,1.127h-7.424v-19.248Zm7.424,15.673c1.632,0,2.983-.49,4.056-1.471s1.608-2.498,1.608-4.55-.536-3.58-1.608-4.579c-1.072-.999-2.424-1.499-4.056-1.499h-3.052v12.099h3.052Z" fill="#243b2f"/>
    <path d="M300.805,85.335v3.574h-10.311v4.097h9.046v3.465h-9.046v4.537h10.338v3.575h-14.71v-19.248h14.683Z" fill="#243b2f"/>
    <path d="M321.171,85.335v19.248h-5.856l-7.039-14.172v14.172h-4.234v-19.248h5.939l6.956,14.056v-14.056h4.234Z" fill="#243b2f"/>
    <path d="M326.378,103.304c-1.421-1.146-2.223-2.818-2.405-5.018h4.812c.091,.972,.444,1.724,1.059,2.255,.613,.532,1.452,.797,2.516,.797,.99,0,1.719-.188,2.187-.563,.467-.375,.701-.894,.701-1.554,0-.477-.129-.88-.385-1.21-.257-.33-.752-.646-1.485-.948-.733-.303-1.806-.619-3.217-.949-1.87-.44-3.258-1.077-4.166-1.911-.907-.834-1.36-1.957-1.36-3.368,0-1.21,.312-2.264,.935-3.162,.623-.898,1.493-1.585,2.612-2.062,1.117-.477,2.41-.715,3.877-.715,1.595,0,2.942,.275,4.042,.825s1.934,1.297,2.502,2.241c.568,.944,.88,2.012,.936,3.203h-4.537c-.11-.861-.413-1.526-.907-1.994-.495-.467-1.192-.701-2.09-.701-.936,0-1.613,.184-2.035,.55s-.632,.834-.632,1.402c0,.367,.101,.669,.302,.907,.202,.239,.573,.464,1.114,.674,.54,.211,1.343,.426,2.406,.646,1.649,.367,2.974,.797,3.973,1.292,.999,.495,1.736,1.132,2.214,1.911,.476,.779,.715,1.764,.715,2.956,0,1.302-.34,2.419-1.018,3.354-.679,.935-1.595,1.646-2.75,2.131-1.154,.485-2.438,.729-3.85,.729-2.621,0-4.643-.573-6.062-1.718h0Z" fill="#243b2f"/>
    <path d="M207.117,131.285c-1.475-.824-2.611-1.993-3.409-3.505-.797-1.513-1.196-3.295-1.196-5.348,0-2.035,.399-3.808,1.196-5.321,.797-1.512,1.934-2.676,3.409-3.492,1.476-.815,3.213-1.224,5.211-1.224s3.739,.408,5.224,1.224c1.485,.816,2.626,1.979,3.424,3.492,.797,1.513,1.196,3.286,1.196,5.321,0,2.053-.398,3.835-1.196,5.348-.798,1.512-1.938,2.681-3.424,3.505-1.484,.825-3.226,1.238-5.224,1.238s-3.735-.413-5.211-1.238Zm1.458-4.385c.925,1.108,2.177,1.663,3.753,1.663,1.595,0,2.855-.555,3.781-1.663,.925-1.109,1.388-2.599,1.388-4.468s-.463-3.35-1.388-4.441c-.926-1.09-2.187-1.636-3.781-1.636-1.576,0-2.828,.545-3.753,1.636-.926,1.091-1.389,2.571-1.389,4.441s.463,3.359,1.389,4.468Z" fill="#243b2f"/>
    <path d="M225.098,112.835h14.298v3.574h-9.926v4.427h8.661v3.574h-8.661v7.672h-4.372v-19.248Z" fill="#243b2f"/>
    <path d="M249.063,130.803c-1.421-1.146-2.223-2.817-2.405-5.018h4.812c.091,.972,.444,1.724,1.059,2.255,.613,.532,1.452,.798,2.516,.798,.99,0,1.719-.188,2.187-.564,.467-.375,.701-.894,.701-1.553,0-.477-.129-.881-.386-1.21-.256-.33-.751-.646-1.484-.949s-1.806-.619-3.217-.948c-1.87-.44-3.258-1.077-4.166-1.911-.907-.834-1.36-1.957-1.36-3.368,0-1.21,.312-2.264,.935-3.162,.623-.898,1.493-1.585,2.612-2.062,1.117-.477,2.41-.715,3.877-.715,1.595,0,2.942,.275,4.042,.825s1.934,1.297,2.502,2.241c.568,.944,.88,2.012,.936,3.203h-4.537c-.11-.861-.412-1.526-.907-1.994-.495-.467-1.192-.701-2.09-.701-.936,0-1.613,.184-2.035,.55s-.632,.834-.632,1.402c0,.367,.101,.669,.302,.907,.202,.239,.573,.464,1.114,.674,.54,.211,1.343,.426,2.406,.646,1.649,.367,2.974,.797,3.973,1.292,.999,.495,1.736,1.132,2.214,1.911,.476,.779,.715,1.765,.715,2.956,0,1.302-.34,2.42-1.018,3.354-.679,.935-1.595,1.646-2.75,2.131-1.154,.485-2.438,.729-3.85,.729-2.621,0-4.643-.572-6.062-1.719h0Z" fill="#243b2f"/>
    <path d="M280.697,112.835l-6.572,12.043v7.204h-4.234v-7.204l-6.599-12.043h4.454l4.29,7.538,4.289-7.538h4.372Z" fill="#243b2f"/>
    <path d="M282.694,112.835h7.424c2.053,0,3.84,.376,5.361,1.127,1.521,.752,2.699,1.852,3.533,3.3s1.251,3.189,1.251,5.224c0,2.017-.417,3.744-1.251,5.184s-2.012,2.534-3.533,3.286c-1.521,.751-3.309,1.127-5.361,1.127h-7.424v-19.248Zm7.424,15.672c1.632,0,2.983-.49,4.056-1.471s1.608-2.497,1.608-4.55-.536-3.58-1.608-4.579c-1.072-.999-2.424-1.499-4.056-1.499h-3.052v12.098h3.052Z" fill="#243b2f"/>
    <path d="M320.291,112.835v19.248h-5.856l-7.039-14.172v14.172h-4.234v-19.248h5.939l6.956,14.056v-14.056h4.234Z" fill="#243b2f"/>
    <path d="M338.527,112.835v3.574h-10.311v4.097h9.046v3.465h-9.046v4.536h10.338v3.575h-14.71v-19.248h14.683Z" fill="#243b2f"/>
    <path d="M357.862,112.835l-6.572,12.043v7.204h-4.234v-7.204l-6.599-12.043h4.454l4.29,7.538,4.289-7.538h4.372Z" fill="#243b2f"/>
  </g>
  <path d="M112.555,85.481c-9.715-13.936-17.715-33.25-20.699-49.974-4.759,19.515,3.535,39.539,20.699,49.974Zm28.268-50.829c-17.164,10.434-25.459,30.458-20.7,49.973,2.984-16.724,10.984-36.038,20.7-49.973Zm-33.015,56.786c-16.724-2.985-36.038-10.984-49.974-20.7,10.434,17.164,30.458,25.459,49.974,20.7Zm-49.118-22.765c16.724,2.984,36.037,10.985,49.973,20.7-10.434-17.164-30.458-25.459-49.973-20.7Zm118.219,2.066c-13.936,9.715-33.25,17.715-49.974,20.7,19.515,4.759,39.539-3.535,49.974-20.7ZM57.835,117.64c13.936-9.715,33.25-17.715,49.974-20.7-19.515-4.759-39.539,3.535-49.974,20.7Zm68.246-28.268c13.936-9.715,33.25-17.715,49.974-20.7-19.515-4.759-39.539,3.535-49.974,20.7Zm16.809-53.865c-2.984,16.724-10.984,36.038-20.7,49.973,17.164-10.434,25.459-30.458,20.7-49.973Zm-15.953,61.433c16.724,2.985,36.038,10.985,49.973,20.7-10.434-17.165-30.458-25.459-49.973-20.7Zm-4.747,5.957c9.715,13.936,17.715,33.25,20.7,49.974,4.759-19.515-3.535-39.539-20.7-49.974Zm18.634,50.829c-9.715-13.936-17.715-33.25-20.7-49.973-4.759,19.515,3.535,39.539,20.7,49.973Zm35.231-34.021c-16.724-2.984-36.038-10.984-49.973-20.7,10.434,17.165,30.458,25.459,49.973,20.7Zm-82.133,34.021c17.165-10.434,25.459-30.458,20.7-49.973-2.985,16.724-10.985,36.038-20.7,49.973Zm0-119.075c9.715,13.936,17.715,33.25,20.7,49.974,4.759-19.515-3.535-39.539-20.7-49.974Zm-2.065,118.219c2.984-16.724,10.984-36.038,20.7-49.973-17.164,10.434-25.459,30.458-20.7,49.973Zm16.808-53.865c-13.936,9.715-33.25,17.715-49.974,20.7,19.515,4.759,39.539-3.535,49.974-20.7Z" fill="#243b2f"/>
</svg>