<?xml version="1.0" encoding="UTF-8"?>
<svg id="a" data-name="Brand" xmlns="http://www.w3.org/2000/svg" width="95.61mm" height="118.644mm" viewBox="0 0 271.02 336.313">
  <g>
    <path d="M89.288,218.254c0,3.482-2.254,5.224-6.764,5.224h-9.156v-19.247h8.359c2.272,0,3.987,.417,5.142,1.251s1.732,2.066,1.732,3.698c0,2.248-1.344,3.511-2.777,4.13,1.734,.428,3.464,1.631,3.464,4.944Zm-11.548-6.27h3.85c.88,0,1.521-.175,1.925-.522,.402-.348,.605-.907,.605-1.678s-.203-1.329-.605-1.677c-.404-.349-1.055-.522-1.953-.522h-3.822v4.399Zm6.984,5.719c0-.843-.215-1.448-.646-1.814-.431-.366-1.168-.551-2.213-.551h-4.125v4.729h4.125c1.045,0,1.782-.183,2.213-.55,.431-.366,.646-.972,.646-1.814Z" fill="#243b2f"/>
    <path d="M96.215,222.68c-1.476-.825-2.612-1.993-3.41-3.505-.797-1.513-1.196-3.295-1.196-5.349,0-2.034,.399-3.808,1.196-5.32s1.934-2.676,3.41-3.492c1.476-.815,3.212-1.224,5.21-1.224s3.74,.408,5.224,1.224c1.485,.815,2.626,1.979,3.423,3.492,.797,1.513,1.196,3.286,1.196,5.32,0,2.054-.398,3.836-1.196,5.349-.797,1.512-1.938,2.68-3.423,3.505-1.484,.825-3.227,1.237-5.224,1.237s-3.735-.412-5.21-1.237Zm1.457-4.385c.925,1.108,2.177,1.663,3.753,1.663,1.595,0,2.855-.555,3.781-1.663,.925-1.109,1.389-2.599,1.389-4.469s-.463-3.35-1.389-4.44c-.926-1.09-2.186-1.636-3.781-1.636-1.577,0-2.828,.546-3.753,1.636-.926,1.091-1.388,2.571-1.388,4.44s.462,3.359,1.388,4.469Z" fill="#243b2f"/>
    <path d="M112.55,207.805v-3.574h16.993v3.574h-6.296v15.673h-4.399v-15.673h-6.297Z" fill="#243b2f"/>
    <path d="M148.171,223.477h-4.509l-1.402-4.592h-8.084l-1.402,4.592h-4.344l6.654-19.247h6.269l6.819,19.247Zm-7.122-8.057l-2.885-8.108-2.807,8.108h5.692Z" fill="#243b2f"/>
    <path d="M167.405,204.23v19.247h-5.856l-7.04-14.172v14.172h-4.234v-19.247h5.939l6.957,14.056v-14.056h4.234Z" fill="#243b2f"/>
    <path d="M170.949,204.23h4.399v19.247h-4.399v-19.247Z" fill="#243b2f"/>
    <path d="M179.448,219.161c-.788-1.521-1.182-3.3-1.182-5.335s.394-3.808,1.182-5.32,1.902-2.676,3.341-3.492c1.439-.815,3.121-1.224,5.045-1.224,2.64,0,4.752,.697,6.338,2.09,1.585,1.394,2.488,3.318,2.708,5.774h-4.729c-.147-1.246-.591-2.209-1.333-2.887-.743-.679-1.737-1.018-2.983-1.018-1.484,0-2.672,.55-3.561,1.649-.889,1.101-1.333,2.576-1.333,4.427,0,1.87,.444,3.359,1.333,4.468,.889,1.109,2.076,1.664,3.561,1.664,1.247,0,2.246-.344,2.998-1.031,.751-.688,1.2-1.645,1.347-2.873h4.757c-.22,2.457-1.132,4.381-2.736,5.774-1.604,1.393-3.726,2.089-6.366,2.089-1.924,0-3.606-.412-5.045-1.237-1.439-.824-2.553-1.997-3.341-3.519Z" fill="#243b2f"/>
    <path d="M67.342,246.702c-.706-1.513-1.059-3.305-1.059-5.376,0-2.035,.398-3.809,1.196-5.32,.797-1.513,1.934-2.677,3.41-3.492,1.475-.816,3.212-1.224,5.21-1.224,2.64,0,4.771,.628,6.393,1.883,1.623,1.256,2.543,2.983,2.764,5.184h-4.729c-.165-.99-.632-1.756-1.402-2.296-.77-.541-1.778-.812-3.024-.812-1.577,0-2.828,.546-3.753,1.636-.926,1.091-1.389,2.571-1.389,4.441,0,1.961,.444,3.474,1.333,4.536,.889,1.063,2.159,1.595,3.809,1.595,1.155,0,2.112-.298,2.873-.894,.76-.596,1.26-1.435,1.499-2.516h-4.372v-3.382h9.431v10.311h-3.629l.055-3.904c-.55,1.394-1.384,2.466-2.502,3.217-1.119,.751-2.475,1.128-4.07,1.128-1.925,0-3.57-.408-4.936-1.224-1.366-.815-2.402-1.979-3.107-3.491Z" fill="#243b2f"/>
    <path d="M107.417,250.977h-4.509l-1.402-4.592h-8.084l-1.402,4.592h-4.344l6.654-19.247h6.269l6.819,19.247Zm-7.121-8.057l-2.885-8.108-2.807,8.108h5.692Z" fill="#243b2f"/>
    <path d="M119.609,231.73c1.998,0,3.474,.422,4.427,1.265,.953,.843,1.43,2.108,1.43,3.794,0,1.266-.343,2.251-1.031,2.956-.688,.706-1.618,1.059-2.791,1.059,1.375,.037,4.317,0,4.317,4.51v5.664h-4.481v-5.279c0-1.539-.706-2.31-2.118-2.31h-5.334v7.589h-4.372v-19.247h9.953Zm-1.43,8.331c1.979,0,2.969-.807,2.969-2.42,0-.806-.233-1.416-.701-1.828-.467-.412-1.223-.619-2.268-.619h-4.152v4.867h4.152Z" fill="#243b2f"/>
    <path d="M129.37,231.73h7.424c2.053,0,3.84,.376,5.361,1.127,1.521,.752,2.699,1.852,3.534,3.3,.833,1.448,1.251,3.189,1.251,5.224,0,2.017-.417,3.744-1.251,5.184-.834,1.439-2.012,2.534-3.534,3.286-1.521,.751-3.309,1.127-5.361,1.127h-7.424v-19.247Zm7.424,15.672c1.631,0,2.983-.49,4.056-1.471,1.072-.98,1.608-2.497,1.608-4.55s-.536-3.579-1.608-4.579c-1.073-.998-2.424-1.498-4.056-1.498h-3.052v12.098h3.052Z" fill="#243b2f"/>
    <path d="M164.521,231.73v3.574h-10.311v4.097h9.046v3.465h-9.046v4.536h10.338v3.575h-14.71v-19.247h14.683Z" fill="#243b2f"/>
    <path d="M184.887,231.73v19.247h-5.856l-7.04-14.172v14.172h-4.234v-19.247h5.939l6.957,14.056v-14.056h4.234Z" fill="#243b2f"/>
    <path d="M187.689,244.681h4.812c.091,.972,.444,1.724,1.058,2.255,.614,.532,1.453,.798,2.516,.798,.99,0,1.719-.188,2.186-.564,.467-.375,.701-.894,.701-1.553,0-.477-.128-.881-.385-1.21-.257-.33-.752-.646-1.484-.949-.734-.303-1.806-.619-3.217-.948-1.87-.44-3.258-1.077-4.166-1.911-.907-.834-1.361-1.956-1.361-3.368,0-1.21,.312-2.264,.935-3.162,.623-.897,1.494-1.586,2.612-2.062,1.118-.477,2.41-.715,3.876-.715,1.595,0,2.942,.275,4.042,.825,1.1,.55,1.934,1.297,2.502,2.241,.568,.944,.88,2.012,.935,3.203h-4.537c-.11-.861-.412-1.526-.907-1.993-.495-.468-1.192-.701-2.089-.701-.936,0-1.613,.184-2.035,.55-.422,.367-.633,.834-.633,1.402,0,.366,.101,.669,.303,.907,.202,.238,.573,.463,1.114,.674,.541,.211,1.342,.426,2.406,.646,1.649,.367,2.974,.798,3.973,1.293,.999,.494,1.737,1.132,2.214,1.91,.476,.779,.714,1.765,.714,2.956,0,1.302-.339,2.42-1.017,3.354-.679,.935-1.595,1.646-2.75,2.131-1.155,.485-2.438,.729-3.849,.729-2.622,0-4.643-.572-6.063-1.719-1.421-1.146-2.223-2.817-2.406-5.018Z" fill="#243b2f"/>
    <path d="M62.441,277.68c-1.476-.825-2.612-1.993-3.41-3.505-.797-1.513-1.196-3.295-1.196-5.349,0-2.034,.398-3.808,1.196-5.32s1.934-2.676,3.41-3.492c1.476-.815,3.212-1.224,5.21-1.224s3.74,.408,5.224,1.224c1.485,.815,2.626,1.979,3.423,3.492,.797,1.513,1.196,3.286,1.196,5.32,0,2.054-.398,3.836-1.196,5.349-.797,1.512-1.938,2.68-3.423,3.505-1.484,.825-3.227,1.237-5.224,1.237s-3.735-.412-5.21-1.237Zm1.457-4.385c.925,1.108,2.177,1.663,3.753,1.663,1.595,0,2.855-.555,3.781-1.663,.925-1.109,1.389-2.599,1.389-4.469s-.463-3.35-1.389-4.44c-.926-1.09-2.186-1.636-3.781-1.636-1.577,0-2.828,.546-3.753,1.636-.926,1.091-1.388,2.571-1.388,4.44s.462,3.359,1.388,4.469Z" fill="#243b2f"/>
    <path d="M80.421,259.23h14.298v3.574h-9.926v4.427h8.662v3.574h-8.662v7.672h-4.372v-19.247Z" fill="#243b2f"/>
    <path d="M101.98,272.181h4.812c.091,.972,.444,1.724,1.058,2.255,.614,.532,1.453,.798,2.516,.798,.99,0,1.719-.188,2.186-.564,.467-.375,.701-.894,.701-1.553,0-.477-.128-.881-.385-1.21-.257-.33-.752-.646-1.484-.949-.734-.303-1.806-.619-3.217-.948-1.87-.44-3.258-1.077-4.166-1.911-.907-.834-1.361-1.956-1.361-3.368,0-1.21,.312-2.264,.935-3.162,.623-.897,1.494-1.586,2.612-2.062,1.118-.477,2.41-.715,3.876-.715,1.595,0,2.942,.275,4.042,.825,1.1,.55,1.934,1.297,2.502,2.241,.568,.944,.88,2.012,.935,3.203h-4.537c-.11-.861-.412-1.526-.907-1.993-.495-.468-1.192-.701-2.089-.701-.936,0-1.613,.184-2.035,.55-.422,.367-.633,.834-.633,1.402,0,.366,.101,.669,.303,.907,.202,.238,.573,.463,1.114,.674,.541,.211,1.342,.426,2.406,.646,1.649,.367,2.974,.798,3.973,1.293,.999,.494,1.737,1.132,2.214,1.91,.476,.779,.714,1.765,.714,2.956,0,1.302-.339,2.42-1.017,3.354-.679,.935-1.595,1.646-2.75,2.131-1.155,.485-2.438,.729-3.849,.729-2.622,0-4.643-.572-6.063-1.719-1.421-1.146-2.223-2.817-2.406-5.018Z" fill="#243b2f"/>
    <path d="M136.02,259.23l-6.572,12.043v7.204h-4.234v-7.204l-6.6-12.043h4.455l4.29,7.537,4.29-7.537h4.372Z" fill="#243b2f"/>
    <path d="M138.016,259.23h7.424c2.053,0,3.84,.376,5.361,1.127,1.521,.752,2.699,1.852,3.534,3.3,.833,1.448,1.251,3.189,1.251,5.224,0,2.017-.417,3.744-1.251,5.184-.834,1.439-2.012,2.534-3.534,3.286-1.521,.751-3.309,1.127-5.361,1.127h-7.424v-19.247Zm7.424,15.672c1.631,0,2.983-.49,4.056-1.471,1.072-.98,1.608-2.497,1.608-4.55s-.536-3.579-1.608-4.579c-1.073-.998-2.424-1.498-4.056-1.498h-3.052v12.098h3.052Z" fill="#243b2f"/>
    <path d="M175.614,259.23v19.247h-5.856l-7.04-14.172v14.172h-4.234v-19.247h5.939l6.957,14.056v-14.056h4.234Z" fill="#243b2f"/>
    <path d="M193.85,259.23v3.574h-10.312v4.097h9.046v3.465h-9.046v4.536h10.338v3.575h-14.71v-19.247h14.683Z" fill="#243b2f"/>
    <path d="M213.185,259.23l-6.572,12.043v7.204h-4.234v-7.204l-6.6-12.043h4.455l4.29,7.537,4.29-7.537h4.372Z" fill="#243b2f"/>
  </g>
  <path d="M130.35,108.664c-9.715-13.936-17.715-33.25-20.699-49.974-4.759,19.515,3.535,39.539,20.699,49.974Zm28.268-50.829c-17.164,10.434-25.459,30.458-20.7,49.973,2.984-16.724,10.984-36.038,20.7-49.973Zm-33.015,56.786c-16.724-2.985-36.038-10.984-49.974-20.7,10.434,17.164,30.458,25.459,49.974,20.7Zm-49.118-22.765c16.724,2.984,36.037,10.985,49.973,20.7-10.434-17.164-30.458-25.459-49.973-20.7Zm118.219,2.066c-13.936,9.715-33.25,17.715-49.974,20.7,19.515,4.759,39.539-3.535,49.974-20.7Zm-119.075,46.902c13.936-9.715,33.25-17.715,49.974-20.7-19.515-4.759-39.539,3.535-49.974,20.7Zm68.246-28.268c13.936-9.715,33.25-17.715,49.974-20.7-19.515-4.759-39.539,3.535-49.974,20.7Zm16.809-53.865c-2.984,16.724-10.984,36.038-20.7,49.973,17.164-10.434,25.459-30.458,20.7-49.973Zm-15.953,61.433c16.724,2.985,36.038,10.985,49.973,20.7-10.434-17.165-30.458-25.459-49.973-20.7Zm-4.747,5.957c9.715,13.936,17.715,33.25,20.7,49.974,4.759-19.515-3.535-39.539-20.7-49.974Zm18.634,50.829c-9.715-13.936-17.715-33.25-20.7-49.973-4.759,19.515,3.535,39.539,20.7,49.973Zm35.231-34.021c-16.724-2.984-36.038-10.984-49.973-20.7,10.434,17.165,30.458,25.459,49.973,20.7Zm-82.133,34.021c17.165-10.434,25.459-30.458,20.7-49.973-2.985,16.724-10.985,36.038-20.7,49.973Zm0-119.075c9.715,13.936,17.715,33.25,20.7,49.974,4.759-19.515-3.535-39.539-20.7-49.974Zm-2.065,118.219c2.984-16.724,10.984-36.038,20.7-49.973-17.164,10.434-25.459,30.458-20.7,49.973Zm16.808-53.865c-13.936,9.715-33.25,17.715-49.974,20.7,19.515,4.759,39.539-3.535,49.974-20.7Z" fill="#243b2f"/>
</svg>